<?xml version="1.0" encoding="utf-8"?>
<svg
	version="1.1"
	focusable="false"
	xmlns="http://www.w3.org/2000/svg"
	xmlns:xlink="http://www.w3.org/1999/xlink"
	x="0px"
	y="0px"
	viewBox="0 0 10.8 6.1"
	style="enable-background: new 0 0 10.8 6.1"
	xml:space="preserve">
	<path
		d="M4.1,6.1l-1-0.3l0.4-1.5C2.9,4.1,2.4,3.8,1.9,3.4L0.8,4.5L0.1,3.8l1.1-1.1C0.6,2,0.2,1.1,0,0.2L1,0c0.4,2.1,2.2,3.7,4.4,3.7
	c2.2,0,4-1.6,4.4-3.7l1,0.2C10.7,1.1,10.2,2,9.6,2.7l1.1,1.1L10,4.5L8.9,3.4c-0.5,0.4-1,0.7-1.6,0.9l0.4,1.5l-1,0.3L6.3,4.6
	c-0.6,0.1-1.3,0.1-1.9,0C4.5,4.6,4.1,6.1,4.1,6.1z" />
</svg>
