<?xml version="1.0" encoding="utf-8"?>
<svg
	version="1.1"
	focusable="false"
	xmlns="http://www.w3.org/2000/svg"
	xmlns:xlink="http://www.w3.org/1999/xlink"
	x="0px"
	y="0px"
	viewBox="0 0 10.8 9"
	style="enable-background: new 0 0 10.8 9"
	xml:space="preserve">
	<path
		d="M5.4,0c2.7,0,4.9,1.9,5.4,4.5C10.3,7.1,8.1,9,5.4,9S0.5,7.1,0,4.5C0.5,1.9,2.7,0,5.4,0z M5.4,8c2.1,0,3.9-1.5,4.4-3.5
	c-0.6-2.4-3-3.9-5.4-3.4C2.7,1.5,1.4,2.8,1,4.5C1.5,6.5,3.3,8,5.4,8z M5.4,6.8c-1.2,0-2.2-1-2.2-2.2s1-2.2,2.2-2.2s2.2,1,2.2,2.2
	S6.7,6.8,5.4,6.8L5.4,6.8z M5.4,5.8c0.7,0,1.2-0.6,1.2-1.2S6.1,3.2,5.4,3.2S4.2,3.8,4.2,4.5S4.7,5.8,5.4,5.8z" />
</svg>
